<?xml version="1.0" encoding="utf-8"?>
<!-- Generator: Adobe Illustrator 16.0.3, SVG Export Plug-In . SVG Version: 6.00 Build 0)  -->
<!DOCTYPE svg PUBLIC "-//W3C//DTD SVG 1.1//EN" "http://www.w3.org/Graphics/SVG/1.1/DTD/svg11.dtd">
<svg version="1.1" xmlns="http://www.w3.org/2000/svg" xmlns:xlink="http://www.w3.org/1999/xlink" x="0px" y="0px" width="85.04px"
	 height="85.04px" viewBox="0 0 85.04 85.04" enable-background="new 0 0 85.04 85.04" xml:space="preserve">
<g id="Warstwa_1">
</g>
<g id="Warstwa_2">
	<g>
		<linearGradient id="SVGID_1_" gradientUnits="userSpaceOnUse" x1="18.0171" y1="34.3848" x2="67.0229" y2="34.3848">
			<stop  offset="0" style="stop-color:#19254F"/>
			<stop  offset="0.2039" style="stop-color:#233E82"/>
			<stop  offset="0.3939" style="stop-color:#1D4594"/>
			<stop  offset="0.6844" style="stop-color:#427CBF"/>
			<stop  offset="1" style="stop-color:#19254F"/>
		</linearGradient>
		<path fill="url(#SVGID_1_)" d="M56.525,47.814v5.646l5.053-0.031v-5.445v-5.444v-5.445v-5.445v-5.445v-5.445
			c0,0,0.258-2.764-0.888-4.11c-1.25-1.469-4.558-1.335-4.558-1.335h-5.444h-5.445h-5.445h-5.445h-5.444h-5.445v5.445v5.445v5.445
			v5.445v5.445v5.444v5.445h5.445h5.444h5.445h5.445v5.445h-5.445h-5.445h-5.444h-5.445h-5.445v-5.445v-5.445v-5.444v-5.445v-5.445
			v-5.445v-5.445v-5.445V9.867h5.445h5.445h5.444h5.445h5.445h5.445h5.444h5.445c0,0,1.894,0,3.737,1.905
			c1.716,1.773,1.708,3.54,1.708,3.54v5.445v5.445v5.445v5.445v5.445v5.444v5.445v5.445h-5.445h-5.445l-4.713,0.029v-5.568
			l-0.031-3.256L56.525,47.814z"/>
		<g>
			<path d="M56.525,22.899v22.514l-5.095,2.401v-14.33c0-0.33,0.008-0.689,0.025-1.077s0.049-0.78,0.094-1.18l-6.617,12.808
				c-0.206,0.399-0.482,0.701-0.83,0.906s-0.744,0.308-1.188,0.308h-0.787c-0.444,0-0.841-0.103-1.188-0.308
				s-0.624-0.507-0.829-0.906l-6.618-12.842c0.035,0.41,0.063,0.813,0.086,1.205c0.023,0.394,0.034,0.756,0.034,1.086v14.33h-5.096
				V22.899h4.412c0.25,0,0.47,0.007,0.658,0.018c0.188,0.012,0.356,0.046,0.504,0.103c0.148,0.057,0.282,0.146,0.402,0.266
				c0.119,0.119,0.236,0.288,0.351,0.504l6.412,12.637c0.229,0.434,0.447,0.884,0.658,1.352c0.211,0.467,0.413,0.946,0.607,1.436
				c0.193-0.501,0.396-0.991,0.607-1.471c0.211-0.479,0.436-0.935,0.675-1.367l6.396-12.586c0.115-0.216,0.232-0.385,0.352-0.504
				c0.12-0.12,0.254-0.209,0.402-0.266c0.146-0.057,0.314-0.091,0.504-0.103c0.188-0.011,0.406-0.018,0.657-0.018H56.525z"/>
		</g>
		<g>
			<path d="M24.649,66.951l-0.009-4.097l-1.513,3.467h-1.044l-1.513-3.467v4.097h-1.432v-6.312h1.756l1.71,3.755l1.711-3.755h1.746
				v6.312H24.649z"/>
			<path d="M28.004,66.951v-6.302h1.603v6.302H28.004z"/>
			<path d="M37.114,63.746v2.458c-0.675,0.477-1.737,0.818-2.62,0.818c-1.917,0-3.366-1.386-3.366-3.223
				c0-1.827,1.485-3.205,3.475-3.205c0.937,0,1.927,0.361,2.575,0.938l-0.9,1.089c-0.46-0.423-1.099-0.685-1.684-0.685
				c-1.035,0-1.828,0.811-1.828,1.863c0,1.072,0.802,1.882,1.846,1.882c0.324,0,0.738-0.116,1.116-0.306v-1.63H37.114z"/>
			<path d="M41.766,65.177h-0.045h-1.216v1.773h-1.603v-6.302h2.818c1.665,0,2.619,0.792,2.619,2.197
				c0,0.963-0.404,1.656-1.143,2.025l1.323,2.079h-1.818L41.766,65.177z M41.721,63.917c0.693,0,1.098-0.352,1.098-1.018
				c0-0.656-0.404-0.99-1.098-0.99h-1.216v2.008H41.721z"/>
			<path d="M47.526,65.79l-0.459,1.161h-1.647l2.719-6.302h1.647l2.656,6.302h-1.711l-0.45-1.161H47.526z M48.913,62.243
				l-0.919,2.332h1.819L48.913,62.243z"/>
			<path d="M58.101,66.951l-2.898-3.88v3.88h-1.504v-6.302h1.414l2.907,3.889v-3.889h1.495v6.302H58.101z"/>
			<path d="M64.365,61.936v5.015h-1.603v-5.015h-1.881v-1.297h5.383v1.297H64.365z"/>
		</g>
		<defs>
			<filter id="Adobe_OpacityMaskFilter" filterUnits="userSpaceOnUse" x="17.858" y="68.798" width="49.324" height="6.374">
				
					<feColorMatrix  type="matrix" values="-1 0 0 0 1  0 -1 0 0 1  0 0 -1 0 1  0 0 0 1 0" color-interpolation-filters="sRGB" result="source"/>
				<feFlood  style="flood-color:white;flood-opacity:1" result="back"/>
				<feBlend  in="source" in2="back" mode="normal"/>
			</filter>
		</defs>
		<mask maskUnits="userSpaceOnUse" x="17.858" y="68.798" width="49.324" height="6.374" id="SVGID_2_">
			<g filter="url(#Adobe_OpacityMaskFilter)">
				<g>
					<path fill="#FFFFFF" d="M20.895,72.415l-0.316,0.351v0.585h-0.605v-2.382h0.605V72l0.912-1.031h0.701l-0.885,0.986l0.942,1.396
						h-0.725L20.895,72.415z"/>
					<path fill="#FFFFFF" d="M23.394,72.912L23.22,73.35h-0.623l1.028-2.382h0.622l1.004,2.382h-0.646l-0.17-0.438H23.394z
						 M23.917,71.571l-0.347,0.881h0.688L23.917,71.571z"/>
					<path fill="#FFFFFF" d="M27.475,73.35l-1.096-1.467v1.467h-0.568v-2.382h0.534l1.1,1.47v-1.47h0.564v2.382H27.475z"/>
					<path fill="#FFFFFF" d="M30.899,71.349l-0.351,0.415c-0.156-0.19-0.388-0.31-0.599-0.31c-0.378,0-0.663,0.3-0.663,0.691
						c0,0.397,0.285,0.7,0.663,0.7c0.201,0,0.433-0.108,0.599-0.278l0.354,0.374c-0.256,0.262-0.633,0.436-0.983,0.436
						c-0.719,0-1.253-0.527-1.253-1.226c0-0.687,0.548-1.204,1.273-1.204C30.293,70.948,30.661,71.104,30.899,71.349z"/>
					<path fill="#FFFFFF" d="M32.122,71.445v0.473h1.137v0.477h-1.137v0.479h1.296v0.477h-1.901v-2.382h1.864v0.477H32.122z"/>
					<path fill="#FFFFFF" d="M35.764,72.843v0.507h-1.616v-2.382h0.605v1.875H35.764z"/>
					<path fill="#FFFFFF" d="M36.943,72.912l-0.174,0.438h-0.623l1.028-2.382h0.622L38.8,73.35h-0.646l-0.17-0.438H36.943z
						 M37.466,71.571l-0.347,0.881h0.688L37.466,71.571z"/>
					<path fill="#FFFFFF" d="M40.442,72.68h-0.018h-0.459v0.67H39.36v-2.382h1.064c0.63,0,0.99,0.3,0.99,0.83
						c0,0.364-0.153,0.626-0.432,0.766l0.5,0.786h-0.688L40.442,72.68z M40.424,72.204c0.263,0,0.415-0.133,0.415-0.385
						c0-0.248-0.152-0.374-0.415-0.374h-0.459v0.759H40.424z"/>
					<path fill="#FFFFFF" d="M42.162,73.35v-2.382h0.605v2.382H42.162z"/>
					<path fill="#FFFFFF" d="M44.124,72.912L43.95,73.35h-0.623l1.028-2.382h0.623l1.003,2.382h-0.646l-0.17-0.438H44.124z
						 M44.648,71.571L44.3,72.452h0.688L44.648,71.571z"/>
					<path fill="#FFFFFF" d="M48.708,70.968c0.608,0,0.959,0.3,0.959,0.83c0,0.559-0.351,0.882-0.959,0.882h-0.433v0.67h-0.605
						v-2.382H48.708z M48.275,72.204h0.401c0.266,0,0.419-0.133,0.419-0.385c0-0.248-0.153-0.374-0.419-0.374h-0.401V72.204z"/>
					<path fill="#FFFFFF" d="M51.403,72.68h-0.017h-0.46v0.67h-0.605v-2.382h1.065c0.629,0,0.989,0.3,0.989,0.83
						c0,0.364-0.152,0.626-0.432,0.766l0.5,0.786h-0.688L51.403,72.68z M51.386,72.204c0.262,0,0.415-0.133,0.415-0.385
						c0-0.248-0.153-0.374-0.415-0.374h-0.46v0.759H51.386z"/>
					<path fill="#FFFFFF" d="M53.664,72.912L53.49,73.35h-0.622l1.027-2.382h0.622l1.004,2.382h-0.646l-0.17-0.438H53.664z
						 M54.188,71.571l-0.348,0.881h0.688L54.188,71.571z"/>
					<path fill="#FFFFFF" d="M57.952,73.35l-0.442-1.646l-0.448,1.646h-0.627l-0.778-2.382h0.646l0.466,1.752l0.456-1.752h0.592
						l0.466,1.752l0.46-1.752h0.619l-0.786,2.382H57.952z"/>
					<path fill="#FFFFFF" d="M61.577,73.35l-1.096-1.467v1.467h-0.568v-2.382h0.534l1.099,1.47v-1.47h0.565v2.382H61.577z"/>
					<path fill="#FFFFFF" d="M63.467,72.912l-0.174,0.438h-0.622l1.027-2.382h0.623l1.003,2.382h-0.646l-0.17-0.438H63.467z
						 M63.992,71.571l-0.348,0.881h0.688L63.992,71.571z"/>
				</g>
			</g>
		</mask>
		<linearGradient id="SVGID_3_" gradientUnits="userSpaceOnUse" x1="17.8579" y1="71.9858" x2="67.1821" y2="71.9858">
			<stop  offset="0" style="stop-color:#19254F"/>
			<stop  offset="0.2039" style="stop-color:#233E82"/>
			<stop  offset="0.3939" style="stop-color:#1D4594"/>
			<stop  offset="0.6844" style="stop-color:#427CBF"/>
			<stop  offset="1" style="stop-color:#19254F"/>
		</linearGradient>
		<path mask="url(#SVGID_2_)" fill="url(#SVGID_3_)" d="M67.182,71.986c0,1.76-0.375,3.187-2.467,3.187H20.325
			c-2.092,0-2.467-1.427-2.467-3.187l0,0c0-1.761,0.375-3.188,2.467-3.188h44.391C66.807,68.798,67.182,70.225,67.182,71.986
			L67.182,71.986z"/>
	</g>
	
		<linearGradient id="SVGID_4_" gradientUnits="userSpaceOnUse" x1="12.0054" y1="-68.9746" x2="24.978" y2="-68.9746" gradientTransform="matrix(-1 0 0 1 44.7959 0)">
		<stop  offset="0" style="stop-color:#3561AD"/>
		<stop  offset="0.1619" style="stop-color:#7784C1"/>
		<stop  offset="0.2898" style="stop-color:#486DB5"/>
		<stop  offset="0.4421" style="stop-color:#2158A8"/>
		<stop  offset="0.4727" style="stop-color:#2D5CAA"/>
		<stop  offset="0.5861" style="stop-color:#4B6AB2"/>
		<stop  offset="0.6845" style="stop-color:#3F69B2"/>
		<stop  offset="0.704" style="stop-color:#4C6EB5"/>
		<stop  offset="0.7395" style="stop-color:#697BBC"/>
		<stop  offset="0.7866" style="stop-color:#9395CA"/>
		<stop  offset="0.8021" style="stop-color:#A3A0CF"/>
		<stop  offset="0.8107" style="stop-color:#9E9CCD"/>
		<stop  offset="1" style="stop-color:#395DAA"/>
	</linearGradient>
	<path fill="url(#SVGID_4_)" d="M26.304-75.46c3.576,0,6.486,2.91,6.486,6.486s-2.91,6.485-6.486,6.485s-6.486-2.909-6.486-6.485
		S22.728-75.46,26.304-75.46z"/>
	<linearGradient id="SVGID_5_" gradientUnits="userSpaceOnUse" x1="74.4683" y1="-68.9746" x2="87.4409" y2="-68.9746">
		<stop  offset="0" style="stop-color:#155B87"/>
		<stop  offset="0.2059" style="stop-color:#20376B"/>
		<stop  offset="0.3939" style="stop-color:#4161AD"/>
		<stop  offset="0.5704" style="stop-color:#5462AC"/>
		<stop  offset="0.6381" style="stop-color:#4769B2"/>
		<stop  offset="0.7697" style="stop-color:#4966AF"/>
		<stop  offset="0.8909" style="stop-color:#5160AC"/>
		<stop  offset="1" style="stop-color:#155B87"/>
	</linearGradient>
	<path fill="url(#SVGID_5_)" d="M80.955-75.46c-3.576,0-6.486,2.91-6.486,6.486s2.91,6.485,6.486,6.485s6.486-2.909,6.486-6.485
		S84.531-75.46,80.955-75.46z"/>
	
		<linearGradient id="SVGID_6_" gradientUnits="userSpaceOnUse" x1="-24.4282" y1="-68.9746" x2="-11.4556" y2="-68.9746" gradientTransform="matrix(-1 0 0 1 44.7959 0)">
		<stop  offset="0" style="stop-color:#3F5AA8"/>
		<stop  offset="0.1221" style="stop-color:#1572BA"/>
		<stop  offset="0.2059" style="stop-color:#416EB6"/>
		<stop  offset="0.31" style="stop-color:#637BBC"/>
		<stop  offset="0.533" style="stop-color:#1D4484"/>
		<stop  offset="0.7012" style="stop-color:#AFADD6"/>
		<stop  offset="0.8296" style="stop-color:#28388B"/>
		<stop  offset="1" style="stop-color:#8D8DC5"/>
	</linearGradient>
	<path fill="url(#SVGID_6_)" d="M62.738-75.46c3.576,0,6.486,2.91,6.486,6.486s-2.91,6.485-6.486,6.485s-6.486-2.909-6.486-6.485
		S59.162-75.46,62.738-75.46z"/>
	
		<linearGradient id="SVGID_7_" gradientUnits="userSpaceOnUse" x1="-188.3804" y1="-68.9746" x2="-175.4077" y2="-68.9746" gradientTransform="matrix(-1 0 0 1 -137.373 0)">
		<stop  offset="0.0296" style="stop-color:#25276B"/>
		<stop  offset="0.1218" style="stop-color:#4658A7"/>
		<stop  offset="0.1807" style="stop-color:#315998"/>
		<stop  offset="0.2411" style="stop-color:#005B8A"/>
		<stop  offset="0.3818" style="stop-color:#3F5AA9"/>
		<stop  offset="0.5156" style="stop-color:#8A87C1"/>
		<stop  offset="0.6235" style="stop-color:#8180BD"/>
		<stop  offset="0.796" style="stop-color:#22408E"/>
		<stop  offset="0.9377" style="stop-color:#41499F"/>
	</linearGradient>
	<path fill="url(#SVGID_7_)" d="M44.521-75.46c3.576,0,6.486,2.91,6.486,6.486s-2.91,6.485-6.486,6.485s-6.486-2.909-6.486-6.485
		S40.945-75.46,44.521-75.46z"/>
	
		<linearGradient id="SVGID_8_" gradientUnits="userSpaceOnUse" x1="-151.9468" y1="-68.9746" x2="-138.9746" y2="-68.9746" gradientTransform="matrix(-1 0 0 1 -137.373 0)">
		<stop  offset="0.128" style="stop-color:#1F5E9B"/>
		<stop  offset="0.2288" style="stop-color:#1E5E9A"/>
		<stop  offset="0.2651" style="stop-color:#1C5F96"/>
		<stop  offset="0.291" style="stop-color:#195F90"/>
		<stop  offset="0.3118" style="stop-color:#135F87"/>
		<stop  offset="0.3295" style="stop-color:#0A5F7B"/>
		<stop  offset="0.3302" style="stop-color:#0A5F7A"/>
		<stop  offset="0.3751" style="stop-color:#2D628C"/>
		<stop  offset="0.4259" style="stop-color:#41649D"/>
		<stop  offset="0.4688" style="stop-color:#4C65A9"/>
		<stop  offset="0.498" style="stop-color:#5067B0"/>
		<stop  offset="0.5683" style="stop-color:#5167B0"/>
		<stop  offset="0.5935" style="stop-color:#576AB2"/>
		<stop  offset="0.6116" style="stop-color:#6170B5"/>
		<stop  offset="0.6262" style="stop-color:#6F78B9"/>
		<stop  offset="0.6385" style="stop-color:#7F83C0"/>
		<stop  offset="0.6494" style="stop-color:#9493C8"/>
		<stop  offset="0.6497" style="stop-color:#9593C8"/>
		<stop  offset="0.6915" style="stop-color:#9192C8"/>
		<stop  offset="0.7381" style="stop-color:#868EC6"/>
		<stop  offset="0.7869" style="stop-color:#7288C4"/>
		<stop  offset="0.8262" style="stop-color:#5B82C2"/>
		<stop  offset="0.8513" style="stop-color:#5274AF"/>
		<stop  offset="0.9015" style="stop-color:#3B568E"/>
		<stop  offset="0.9519" style="stop-color:#243670"/>
	</linearGradient>
	<path fill="url(#SVGID_8_)" d="M8.087-75.46c3.576,0,6.486,2.91,6.486,6.486s-2.91,6.485-6.486,6.485s-6.486-2.909-6.486-6.485
		S4.511-75.46,8.087-75.46z"/>
	
		<linearGradient id="SVGID_9_" gradientUnits="userSpaceOnUse" x1="-187.937" y1="-68.9741" x2="-175.8511" y2="-68.9741" gradientTransform="matrix(-1 0 0 1 -137.373 0)">
		<stop  offset="0.0623" style="stop-color:#41499F"/>
		<stop  offset="0.204" style="stop-color:#22408E"/>
		<stop  offset="0.3765" style="stop-color:#8180BD"/>
		<stop  offset="0.4844" style="stop-color:#8A87C1"/>
		<stop  offset="0.6182" style="stop-color:#3F5AA9"/>
		<stop  offset="0.7589" style="stop-color:#005B8A"/>
		<stop  offset="0.8193" style="stop-color:#315998"/>
		<stop  offset="0.8782" style="stop-color:#4658A7"/>
		<stop  offset="0.9704" style="stop-color:#25276B"/>
	</linearGradient>
	<circle fill="url(#SVGID_9_)" cx="44.521" cy="-68.974" r="6.043"/>
	
		<linearGradient id="SVGID_10_" gradientUnits="userSpaceOnUse" x1="-23.9849" y1="-68.9741" x2="-11.8989" y2="-68.9741" gradientTransform="matrix(-1 0 0 1 44.7959 0)">
		<stop  offset="0" style="stop-color:#8D8DC5"/>
		<stop  offset="0.1704" style="stop-color:#28388B"/>
		<stop  offset="0.2988" style="stop-color:#AFADD6"/>
		<stop  offset="0.467" style="stop-color:#1D4484"/>
		<stop  offset="0.69" style="stop-color:#637BBC"/>
		<stop  offset="0.7941" style="stop-color:#416EB6"/>
		<stop  offset="0.8779" style="stop-color:#1572BA"/>
		<stop  offset="1" style="stop-color:#3F5AA8"/>
	</linearGradient>
	<circle fill="url(#SVGID_10_)" cx="62.738" cy="-68.974" r="6.043"/>
	
		<linearGradient id="SVGID_11_" gradientUnits="userSpaceOnUse" x1="-151.5034" y1="-68.9741" x2="-139.4175" y2="-68.9741" gradientTransform="matrix(-1 0 0 1 -137.373 0)">
		<stop  offset="0.0481" style="stop-color:#243670"/>
		<stop  offset="0.0985" style="stop-color:#3B568E"/>
		<stop  offset="0.1487" style="stop-color:#5274AF"/>
		<stop  offset="0.1738" style="stop-color:#5B82C2"/>
		<stop  offset="0.2131" style="stop-color:#7288C4"/>
		<stop  offset="0.2619" style="stop-color:#868EC6"/>
		<stop  offset="0.3085" style="stop-color:#9192C8"/>
		<stop  offset="0.3503" style="stop-color:#9593C8"/>
		<stop  offset="0.3506" style="stop-color:#9493C8"/>
		<stop  offset="0.3615" style="stop-color:#7F83C0"/>
		<stop  offset="0.3738" style="stop-color:#6F78B9"/>
		<stop  offset="0.3884" style="stop-color:#6170B5"/>
		<stop  offset="0.4065" style="stop-color:#576AB2"/>
		<stop  offset="0.4317" style="stop-color:#5167B0"/>
		<stop  offset="0.502" style="stop-color:#5067B0"/>
		<stop  offset="0.5312" style="stop-color:#4C65A9"/>
		<stop  offset="0.5741" style="stop-color:#41649D"/>
		<stop  offset="0.6249" style="stop-color:#2D628C"/>
		<stop  offset="0.6698" style="stop-color:#0A5F7A"/>
		<stop  offset="0.6705" style="stop-color:#0A5F7B"/>
		<stop  offset="0.6882" style="stop-color:#135F87"/>
		<stop  offset="0.709" style="stop-color:#195F90"/>
		<stop  offset="0.7349" style="stop-color:#1C5F96"/>
		<stop  offset="0.7712" style="stop-color:#1E5E9A"/>
		<stop  offset="0.872" style="stop-color:#1F5E9B"/>
	</linearGradient>
	<circle fill="url(#SVGID_11_)" cx="8.087" cy="-68.974" r="6.043"/>
	
		<linearGradient id="SVGID_12_" gradientUnits="userSpaceOnUse" x1="12.4487" y1="-68.9741" x2="24.5347" y2="-68.9741" gradientTransform="matrix(-1 0 0 1 44.7959 0)">
		<stop  offset="0" style="stop-color:#395DAA"/>
		<stop  offset="0.1893" style="stop-color:#9E9CCD"/>
		<stop  offset="0.1979" style="stop-color:#A3A0CF"/>
		<stop  offset="0.2134" style="stop-color:#9395CA"/>
		<stop  offset="0.2605" style="stop-color:#697BBC"/>
		<stop  offset="0.296" style="stop-color:#4C6EB5"/>
		<stop  offset="0.3155" style="stop-color:#3F69B2"/>
		<stop  offset="0.4139" style="stop-color:#4B6AB2"/>
		<stop  offset="0.5273" style="stop-color:#2D5CAA"/>
		<stop  offset="0.5579" style="stop-color:#2158A8"/>
		<stop  offset="0.7102" style="stop-color:#486DB5"/>
		<stop  offset="0.8381" style="stop-color:#7784C1"/>
		<stop  offset="1" style="stop-color:#3561AD"/>
	</linearGradient>
	<circle fill="url(#SVGID_12_)" cx="26.304" cy="-68.974" r="6.043"/>
	<linearGradient id="SVGID_13_" gradientUnits="userSpaceOnUse" x1="74.9116" y1="-68.9741" x2="86.9976" y2="-68.9741">
		<stop  offset="0" style="stop-color:#155B87"/>
		<stop  offset="0.1091" style="stop-color:#5160AC"/>
		<stop  offset="0.2303" style="stop-color:#4966AF"/>
		<stop  offset="0.3619" style="stop-color:#4769B2"/>
		<stop  offset="0.4296" style="stop-color:#5462AC"/>
		<stop  offset="0.6061" style="stop-color:#4161AD"/>
		<stop  offset="0.7941" style="stop-color:#20376B"/>
		<stop  offset="1" style="stop-color:#155B87"/>
	</linearGradient>
	<circle fill="url(#SVGID_13_)" cx="80.955" cy="-68.974" r="6.043"/>
</g>
</svg>
